<?xml version="1.0" encoding="utf-8"?>
<svg xmlns="http://www.w3.org/2000/svg" xmlns:xlink="http://www.w3.org/1999/xlink" version= "1.1" width="1200px" height="1928px" viewBox="0 0 1200 1928">
<g id="layer1">
<g style="fill:rgb(0,0,0); fill-opacity:1.0; stroke-linejoin: miter">
<path d="M726.9604,526.855L727.582,526.86206Q793.92175,535.24445,797.1658,601.381Q799.9829,634.6476,788.386,699.7103Q771.816,786.24304,753.64923,838.9355Q731.9846,895.3487,685.47864,924.473Q647.07117,950.40015,569.92474,956.72925Q536.6262,955.2977,486.82812,931.1603Q450.30945,904.54565,408.75055,853.6556Q382.06458,814.9398,379.11795,788.43945Q375.8073,736.9774,386.3178,705.3445Q419.1063,639.6252,444.36075,612.50653Q475.50632,587.52814,532.80566,555.814Q571.5638,536.249,588.0278,533.21844Q603.3439,530.5551,631.1749,537.58844L598.1193,550.41284Q595.31934,551.3578,590.05884,555.4433Q563.15717,578.7052,575.65283,581.44336Q580.7715,580.48834,584.4779,574.3092L586.38794,570.2988Q580.33167,577.3832,576.1966,577.609L580.9874,572.24384Q594.13855,561.14594,600.37177,558.9807Q628.1803,551.8186,676.0117,534.1662Q706.96814,527.65393,726.9604,526.855 M727.3915,509.79037L726.24756,509.80502Q711.4209,510.39508,675.09814,518.87036Q673.8954,517.7929,632.4984,537.0396Q596.6779,520.40894,578.3157,527.0618Q539.62415,535.8512,493.3448,561.0658Q427.42883,596.6271,424.00058,607.19574Q382.96985,658.0766,363.20563,704.6763Q351.56226,746.3987,357.85153,797.768Q365.19336,833.4509,395.96667,875.9586Q436.15955,923.47504,473.71906,949.71826Q533.9966,979.73065,571.7727,979.746Q657.1737,972.4173,701.91296,940.324Q755.75757,905.1429,779.2107,835.8034Q798.477,773.37305,813.3917,687.38525Q823.2273,622.2217,817.8071,594.4452Q808.36584,516.1428,727.3915,509.79037"/>
</g>
<g style="fill:rgb(0,0,0); fill-opacity:1.0; stroke-linejoin: miter">
<path d="M719.47504,354.76602L719.4291,354.83258Q695.1231,376.98022,661.89984,443.48486Q652.65247,465.0074,637.4977,510.9452Q633.14624,530.6555,632.7828,533.5949L631.2366,547.6549Q631.19073,548.24054,630.9595,548.861Q631.9806,546.7871,632.61176,544.78455L637.28284,529.8123Q640.8669,519.5682,642.90894,514.4192L666.54614,463.27368L680.38727,431.37793Q701.33997,385.36456,703.6986,381.4194L711.2211,366.90054Q713.8891,362.6346,719.47504,354.76602"/>
</g>
<g style="fill:rgb(0,0,0); fill-opacity:1.0; stroke-linejoin: miter">
<path d="M828.6748,385.3366L828.7167,385.3452Q828.8396,385.37018,828.92883,385.38232L828.9574,385.386Q828.9851,385.38925,829.0086,385.39102L829.0311,385.39236L829.0515,385.39294Q829.1473,385.39395,829.25,385.39075Q829.30005,385.38913,829.34924,385.38644L829.39813,385.38348Q829.5441,385.3738,829.68195,385.35443Q829.6778,385.3545,829.6737,385.35452Q829.6227,385.36072,829.5673,385.3651Q829.51196,385.3695,829.4507,385.37186Q829.42004,385.37302,829.3877,385.37363L829.35474,385.37408Q829.32544,385.37442,829.278,385.374L829.23346,385.3733Q829.1882,385.37234,829.1393,385.37036L829.0896,385.36813Q829.0389,385.36563,828.9842,385.36203Q828.92957,385.35843,828.8706,385.35367Q828.81165,385.3489,828.74805,385.3429L828.68317,385.3366L828.6748,385.3366 M789.4707,377.71802L788.61554,377.71933Q776.54724,377.45554,763.4356,379.5824L745.24725,384.10065Q740.52594,385.5665,732.80756,389.33533Q730.39,390.4503,719.9405,396.26428Q712.13257,401.0823,711.5158,401.76108Q697.92566,412.47665,677.52875,431.72852Q718.1317,405.74173,719.29834,405.7813Q727.08875,401.83426,733.0373,399.57184Q746.45044,394.46252,760.414,389.98578L767.8768,387.78693Q769.5287,387.36075,772.01,386.87024Q785.18176,384.64188,792.4366,383.86496Q805.2255,383.3515,809.9144,383.60574Q819.2266,384.103,828.66724,385.335L816.83545,381.75946Q811.577,380.27194,809.2251,379.82608Q797.0281,377.67792,789.4707,377.71802"/>
</g>
<g style="fill:rgb(0,0,0); fill-opacity:1.0; stroke-linejoin: miter">
<path d="M839.1623,374.99075L839.0631,375.03174Q838.37915,375.32162,837.75,375.6485Q837.9849,375.5296,838.4494,375.31256Q838.7994,375.15024,839.17065,374.99075L839.1623,374.99075 M837.49316,375.77826L837.17255,375.94495Q831.8725,378.70212,828.88403,380.74457Q802.8407,401.82327,775.75305,419.25336L742.1537,438.79706Q736.06396,442.2319,732.1566,443.7146Q695.5937,456.62106,670.9784,437.45602Q679.2174,446.93576,686.2151,450.5352Q697.112,455.94293,706.5139,456.34082Q719.8993,457.1824,733.048,453.9969Q739.01965,453.04297,756.3079,444.07428Q772.2702,435.3699,795.81085,415.91873Q814.1391,400.78705,831.58856,380.34375Q835.3904,376.71036,837.49316,375.77826"/>
</g>
<g style="fill:rgb(0,134,48); fill-opacity:1.0; stroke-linejoin: miter">
<path d="M720.75055,700.93243L720.47675,700.59546Q713.51624,686.10333,687.33746,670.03467Q674.5825,662.5813,648.89075,660.61053Q599.6799,657.3935,558.0322,691.9487Q527.1863,724.36237,522.4311,762.33496Q525.3473,817.3097,552.7928,853.6396Q565.58374,869.2545,593.42755,881.9142Q627.4363,897.1012,656.28564,901.1373Q685.7859,904.3332,702.08984,898.834Q717.9234,894.0996,737.7533,876.66876Q757.329,858.2158,767.4995,840.36584Q781.12585,814.2694,781.57336,797.7156Q780.16064,775.75604,762.3691,736.8756Q755.74005,723.68787,742.2868,706.54987Q737.4348,699.35767,729.2855,695.19904Q722.2582,690.1206,671.44214,672.10925Q722.82227,698.6196,731.1536,706.5207Q753.63245,742.03204,753.2586,745.9071Q763.9129,775.26404,766.07635,798.40204Q756.7868,828.6913,745.0707,841.3946Q722.50214,868.35925,700.12244,877.6406Q683.7638,884.6297,650.88525,877.925Q616.1647,870.24713,581.0965,850.6786Q550.98895,826.70917,541.93085,766.9979Q539.5502,747.1217,563.485,710.26984Q577.94543,693.24054,607.62024,679.3897Q644.68835,667.3691,672.61365,673.5891Q692.3795,677.1584,720.75055,700.93243"/>
</g>
<g style="fill:rgb(0,134,48); fill-opacity:1.0; stroke-linejoin: miter">
<path d="M653.01483,710.2496L652.9331,712.0635Q652.8017,715.0231,651.6967,722.64905L650.8419,727.87146L649.6527,733.68353Q649.42645,734.8779,649.24835,736.2985L649.1575,737.2807Q648.5378,747.83405,648.4733,747.95123Q648.36096,749.65515,647.3845,758.8133Q647.18463,760.91327,646.8365,766.46875Q646.3218,770.46436,646.1801,771.23303L645.068,777.6768Q645.0318,778.2498,645.0706,778.5924Q645.338,779.8118,645.34314,780.3212L645.4607,783.58295L645.3781,784.31757Q645.378,784.98975,645.25684,786.48834L644.4551,796.4056Q644.22565,799.2675,644.2586,800.22406L644.31274,803.4262L644.78784,811.5466Q644.84595,812.44727,644.55646,817.0499L644.5317,818.7905Q644.6649,821.9192,644.62756,822.04126Q644.64996,822.31067,644.4545,826.50073Q644.43805,827.04047,644.6725,830.82056L644.6227,837.109Q644.6528,837.8958,644.8204,839.90906L645.3896,845.906Q645.4366,847.81714,645.2104,850.66675L646.2954,845.8124L647.214,837.24164L648.0497,832.79144L648.84314,827.13586Q649.4455,824.1737,649.7155,822.4311Q649.8239,822.2315,650.2031,817.71576Q651.12866,813.2933,651.2452,811.9943L651.71454,804.10547L651.8727,802.3811Q652.2236,799.0631,652.8037,795.50696L654.6316,785.75824L655.03204,780.0508Q654.9968,779.8457,655.4294,778.7537L655.62,776.6763Q656.26215,767.7183,656.20715,768.0194Q656.2348,767.0431,656.21576,766.3061L656.0449,759.11707Q656.0112,749.72266,655.9398,747.7322Q655.8966,745.08826,655.53796,737.0274Q655.5354,736.5173,655.5598,736.02405L655.77325,731.997Q655.795,731.38995,655.7705,730.47015Q655.07983,727.4274,654.30664,723.2236Q653.4886,714.73914,653.08435,713.3863Q653.01514,712.97614,653.01483,710.2496"/>
</g>
<g style="fill:rgb(0,134,48); fill-opacity:1.0; stroke-linejoin: miter">
<path d="M738.4646,770.1618L738.5337,770.1731Q738.86743,770.2282,739.15063,770.2791L739.1536,770.2792L738.996,770.2504Q738.8875,770.231,738.77136,770.21124Q738.6552,770.19147,738.5332,770.1717L738.472,770.1618L738.4646,770.1618 M661.0069,766.7463L660.9891,766.74664Q658.80994,767.17737,651.1132,767.9787L646.861,768.65796Q643.4335,768.97864,642.693,769.13Q642.0193,769.1769,635.39197,770.56274Q634.2898,770.70526,630.994,770.91986Q622.0561,772.3124,621.32275,772.2423L608.5924,774.9277L602.7343,775.57764Q601.8657,775.6962,600.6604,775.9225Q589.32635,778.6903,584.0912,782.4818Q585.5169,781.8663,588.14154,781.4963Q597.26984,780.3278,600.0704,780.1752Q601.1722,780.0797,602.55414,780.0809L607.1947,780.2473Q607.8255,780.26935,610.5409,780.2012Q611.8646,780.2124,621.5577,779.2129Q621.26184,779.1841,627.0711,779.13715L630.486,778.96857Q635.00977,779.0187,637.4366,778.87775L642.60535,778.38824L651.0449,777.81537Q651.4955,777.747,654.86005,777.8361Q655.6984,777.82556,656.9696,777.73505Q658.99335,777.5873,661.2523,777.3165L661.7323,777.3314Q662.31494,776.98755,662.78796,776.99896Q678.44653,776.2466,686.4396,775.581L698.0336,774.4538L703.40393,773.61926L712.8326,772.70905L719.12683,771.5511L735.7194,769.95355Q736.42365,769.8819,737.60315,770.0358Q720.24646,768.20746,718.5077,768.1553L717.5783,768.1391Q713.96313,768.3448,713.13806,768.3178Q708.38354,768.02,705.21783,767.9662Q702.51556,767.9119,698.473,768.0522L694.17865,767.91113Q693.1559,767.89984,689.5441,768.0247Q687.9009,768.0263,686.5961,767.98737Q684.91077,767.99066,661.88995,766.9925L661.0069,766.7463"/>
</g>
</g>
</svg>