<?xml version="1.0" encoding="utf-8"?>
<svg xmlns="http://www.w3.org/2000/svg" xmlns:xlink="http://www.w3.org/1999/xlink" version= "1.1" width="1200px" height="1928px" viewBox="0 0 1200 1928">
<g id="layer1">
<g style="fill:rgb(0,0,0); fill-opacity:1.0; stroke-linejoin: miter">
<path d="M689.4617,729.2236L688.5193,728.44165Q661.97644,700.93695,603.88074,685.5497Q574.68567,679.88586,509.10474,695.60187Q400.51404,722.3012,323.47113,822.9097Q250.04736,915.59045,256.5513,1008.39355Q260.77936,1100.6816,347.94873,1180.1077Q383.351,1215.5503,492.23096,1248.7847Q546.6028,1263.2966,630.7305,1258.5647Q671.43567,1256.7407,733.29175,1216.8754Q791.35455,1179.771,831.632,1126.4543Q878.764,1065.3624,886.75104,993.85Q890.50995,912.1482,852.7861,845.81476Q812.41156,770.0357,739.63745,728.26Q716.09424,713.8291,691.0488,707.41705Q670.3664,701.128,592.45557,688.3106Q592.8456,687.6536,653.8234,707.80237Q671.9293,713.7886,703.0498,725.8939Q714.2781,730.63684,742.3805,750.67365Q799.39703,790.25964,832.36597,862.6857Q897.7181,1003.17834,798.68396,1118.65Q738.68604,1188.603,659.72766,1220.8684Q618.56116,1235.6248,526.6687,1224.7183Q495.68616,1219.755,430.40283,1195.0144Q405.1184,1184.6051,381.3946,1167.1509Q320.3753,1122.5806,295.5226,1052.3812Q275.40656,989.8796,302.5085,916.7449Q344.71814,825.75726,408.77783,772.1482Q466.7878,718.57416,574.2622,700.59546Q615.05493,692.6818,689.4617,729.2236"/>
</g>
<g style="fill:rgb(0,0,0); fill-opacity:1.0; stroke-linejoin: miter">
<path d="M162.26744,693.3001L162.29536,694.44275Q162.36223,696.16754,161.51294,707.4467Q162.18631,713.4894,162.53897,727.012Q163.64375,734.6658,166.9348,771.9231Q168.34248,793.47174,168.5059,806.09326Q168.60956,817.08203,168.36833,828.5172L167.3273,872.6387Q166.10062,888.28064,165.74103,896.38196Q165.57964,898.87427,165.09723,918.2904Q164.96829,918.78766,165.32782,934.79865Q165.89026,951.0254,166.24416,952.5553L166.25664,959.1505L166.69052,964.8622L168.63876,985.6181Q171.53882,1023.5554,171.73834,1027.1027L174.42136,1075.1035L177.67313,1126.854Q177.92255,1129.2609,180.0375,1177.4758Q180.2149,1181.685,180.97513,1194.225Q183.05013,1222.4751,186.90541,1264.0833Q187.05319,1264.4216,186.73509,1266.9795Q190.42932,1224.0171,190.88298,1212.7998Q191.02536,1212.925,192.6505,1165.3832Q193.4278,1142.4955,193.60657,1134.6252Q193.88432,1122.2825,193.83437,1121.7151Q193.64104,1117.3881,193.87225,1095.8105L193.7388,1076.526L193.83896,1062.6292L193.63042,1049.5012Q193.63132,1036.0425,193.50743,1029.3383Q193.29767,1016.8004,193.0427,1007.00146L192.4554,984.1771L191.95978,975.5005Q191.66873,971.76807,190.01268,959.1837Q189.66702,955.7412,189.48488,950.3867L188.43187,942.1937Q188.24869,941.0879,186.99956,921.9471Q186.60953,911.18756,186.34102,897.3844Q186.20547,894.33154,186.66298,881.3151L186.64778,872.7816Q186.46892,863.44824,186.11201,854.3283Q185.08466,824.57776,182.31976,796.611Q180.14879,773.3168,177.04457,759.0132Q175.10338,748.27,169.74506,726.78864L167.37463,714.01184Q166.8835,711.14594,163.84174,701.5142L162.26744,693.3001 M186.57703,1267.8905L186.55922,1267.9792Q186.471,1268.4089,186.39066,1268.7468Q186.3912,1268.7473,186.39175,1268.7479Q186.40665,1268.6877,186.42192,1268.623Q186.45251,1268.494,186.48407,1268.3503Q186.51562,1268.2064,186.54733,1268.0498L186.57889,1267.8905L186.57703,1267.8905"/>
</g>
<g style="fill:rgb(0,0,0); fill-opacity:1.0; stroke-linejoin: miter">
<path d="M155.9707,690.62933L155.96436,690.7874Q155.33102,695.6573,156.12968,698.1261Q171.04478,743.8815,172.6814,750.40356Q175.52304,763.0078,179.56111,790.6801Q180.58702,796.20374,184.17291,810.26715Q184.97974,814.99194,214.06856,918.30853Q218.04915,932.68427,220.0918,940.9481Q223.66837,958.11316,225.78436,965.4247Q227.53793,975.6284,228.29271,984.3818Q228.96426,995.15796,225.71509,999.95386Q225.10213,1001.115,213.24034,1009.55194Q188.67455,1024.0071,189.45193,1024.487Q183.2326,1030.675,180.37587,1040.9478Q177.4529,1048.9064,178.60997,1060.6523Q178.39116,1064.6346,184.2431,1114.3363Q185.6149,1130.6083,185.20204,1136.3003Q188.11627,1115.1302,188.31496,1108.5425Q189.0408,1098.2561,189.26376,1064.2517L189.73781,1054.0603Q189.9171,1051.1356,192.50043,1044.4382Q194.538,1039.1267,198.64154,1034.4412Q228.84702,1020.7009,238.41904,1011.15857Q246.26569,1002.75806,246.90265,985.7193Q246.24893,961.5769,239.88652,935.2601Q235.93517,918.0028,194.28061,791.91895Q187.48956,762.4131,184.28671,752.4285Q183.5615,749.26807,179.5223,740.6139L158.21555,697.64685L155.9707,690.62933"/>
</g>
<g style="fill:rgb(0,0,0); fill-opacity:1.0; stroke-linejoin: miter">
<path d="M956.951,728.1423L956.9262,728.3969Q956.254,731.16754,955.9294,735.616Q956.1839,751.7566,956.12195,755.1371Q956.1263,756.10706,955.9184,756.79895L954.5354,777.12317Q954.46826,775.71954,954.63794,793.79236Q953.0142,808.41974,952.7495,812.1072Q951.8398,833.8617,950.9181,844.7002Q950.73755,848.1247,950.71967,850.7766Q950.881,863.20197,950.72046,865.1551L949.4138,883.3225L948.31946,910.22345Q948.2164,910.6882,948.0484,914.69116L947.16754,923.6443Q947.06854,924.08685,946.6667,933.9823Q945.94666,938.08936,943.9033,969.79443L942.3335,984.4597Q941.6608,992.28265,941.3623,998.19434Q941.27374,998.9059,941.46027,1000.907Q941.5395,1010.9803,941.71985,1017.09906Q941.3095,1027.0854,941.26495,1031.6642Q941.1181,1037.0613,941.2674,1048.138L940.9304,1063.4838Q941.5246,1089.293,942.7021,1114.5261L944.50977,1148.4146L945.7666,1176.0487Q946.0326,1181.4226,947.22833,1194.2806L947.1101,1203.9055Q947.13416,1206.0461,947.2638,1208.6931Q948.95557,1222.5964,951.01,1245.7266L953.413,1262.2434Q954.014,1266.525,954.0084,1272.8761Q953.9485,1268.3273,954.88,1258.9739Q954.8172,1254.4526,956.46265,1226.5542Q956.7424,1221.7388,956.6978,1209.2051L958.24603,1195.4331Q958.311,1185.0046,958.44055,1179.3234Q959.4684,1144.0875,959.47723,1140.1782Q959.71564,1116.3899,959.8639,1112.2712Q960.0647,1102.6091,960.86725,1073.7976Q961.0411,1066.6707,961.078,1062.2925L962.2853,1048.1947L962.994,1034.0979L964.2282,1016.46436Q964.60956,1009.5084,964.55786,1002.21155L964.8084,1000.1231L965.09845,992.5536L966.1607,971.681Q966.33386,956.68835,967.0868,939.22986Q967.18884,935.02234,967.1982,927.2371L967.79645,913.92145Q967.07623,894.2997,966.9721,885.44025Q966.9507,882.4999,966.9988,881.00183Q967.47064,870.2699,967.40497,867.84576L967.12024,860.4628Q966.4426,853.08344,966.30994,848.72266L965.9302,828.8489L965.29047,812.09033Q965.5422,798.66064,965.51056,797.8478Q965.55597,796.47205,965.3686,793.8099Q964.9214,788.547,963.5563,777.42676L962.0063,756.17975Q961.9505,757.0268,956.951,728.1423"/>
</g>
<g style="fill:rgb(0,0,0); fill-opacity:1.0; stroke-linejoin: miter">
<path d="M927.087,728.2796L927.1062,728.3408Q927.3889,729.01215,927.5817,732.0409Q927.8358,744.02606,928.2654,748.3488Q928.74347,755.0152,930.04034,765.6813L929.99396,771.0116L930.35126,779.729Q930.44507,780.2455,929.7036,790.13Q928.75287,794.9618,928.06464,801.1831Q927.29443,804.2718,927.27985,804.8591L927.2425,807.41565L926.8898,812.2488Q926.79877,815.9149,926.9813,818.3183L926.57043,822.57263L926.4526,827.3535Q926.403,828.1195,926.31256,828.6239Q925.07404,834.46716,925.18494,834.79926L925.61945,845.465Q925.6834,846.73206,925.4328,850.8566Q925.40607,851.9478,925.4455,852.6517Q925.7676,857.9789,926.699,860.35223Q928.166,864.9752,930.86084,867.5201Q935.0801,871.1332,944.8589,876.99493Q941.561,875.62006,933.05804,866.2236Q931.16895,864.0261,930.55334,859.0899Q930.2107,856.22705,930.5189,853.4523Q930.62,852.36835,930.7901,851.5345L932.0216,845.5788Q932.1999,844.32385,932.3643,842.6084L933.00867,835.5766Q933.1461,834.5899,934.4071,831.0064L934.8522,829.1453L935.87335,823.3138Q936.0092,822.99536,936.75165,819.4793Q937.38617,812.54675,937.55347,811.73444Q937.8303,809.79895,938.79065,807.7656Q939.011,806.9945,939.1374,806.0819Q939.4426,803.8462,939.5717,802.1023L939.75415,796.90686Q939.981,794.72144,940.179,790.69025L940.02454,786.10724L939.46783,778.33997Q939.1629,775.5176,938.3124,771.3805Q937.9084,766.68536,937.463,764.483L929.34717,732.9513Q928.557,729.8068,927.087,728.2796 M945.0007,877.07666L945.17786,877.1727Q946.1759,877.711,946.9896,877.9961Q946.56335,877.8339,945.96747,877.55695Q945.75543,877.45795,945.51434,877.33777Q945.27325,877.2176,945.0102,877.07666L945.0007,877.07666"/>
</g>
<g style="fill:rgb(0,0,0); fill-opacity:1.0; stroke-linejoin: miter">
<path d="M997.9354,745.95917L997.89087,746.027Q997.74084,746.1325,996.6111,753.38776Q991.5326,769.2036,989.9609,774.3488Q989.86664,774.2455,989.5268,776.79846Q989.33105,777.788,989.2296,783.9463L988.30786,829.3667L986.36115,848.6428Q986.0389,850.77997,985.58685,852.6559Q983.03925,864.99615,970.0052,863.6441Q983.3878,868.7068,988.9771,858.6612Q991.6173,854.44214,992.76196,849.76117Q997.1462,832.6248,997.45636,829.03815Q998.00464,813.11615,997.8431,809.01953Q997.8602,807.1608,997.5185,796.9333L996.5683,775.7679L997.93195,749.15607Q998.08057,745.9835,997.9354,745.95917"/>
</g>
<g style="fill:rgb(15,124,53); fill-opacity:1.0; stroke-linejoin: miter">
<path d="M565.074,865.6318L566.1099,865.6385Q582.58246,865.47864,607.41797,874.8085L608.14966,875.0997L604.03174,874.0297L597.4678,872.1597Q594.7635,871.3742,588.5624,869.0609Q592.6216,870.3373,618.45056,882.3151L632.73395,888.0062Q636.3378,890.3316,637.47095,892.7962L635.3248,888.94763Q643.6471,891.7141,645.5647,892.8451Q656.9025,898.75726,663.46594,904.2852Q679.73334,922.1665,679.7621,963.2012Q679.4005,982.1652,673.5879,996.6816Q664.5314,1013.7671,651.68414,1025.7985Q637.4547,1037.8243,603.8239,1050.9065Q581.8427,1059.2854,563.6033,1058.6152Q554.2933,1058.6393,541.24756,1053.5743Q504.10614,1030.6353,498.75656,1025.2041Q480.72684,1002.73224,475.43924,993.1047Q469.61066,979.85754,469.56918,964.55664Q470.98227,925.2029,499.2873,896.7809Q526.3922,869.2824,565.074,865.6318 M560.1888,853.09576L559.0773,853.10504Q515.8506,855.0339,480.3811,889.9339Q446.03787,927.8596,447.05606,971.39374Q447.881,991.4163,454.97784,1005.85175Q472.6982,1035.8066,482.36533,1045.144Q509.4275,1067.4338,529.09705,1076.9751Q544.0916,1084.3984,564.25525,1084.4304Q587.53406,1083.9005,612.61176,1073.0414Q655.7306,1053.3484,663.67065,1043.7239Q677.0525,1032.2407,690.27136,1005.7611Q696.28143,992.2444,696.5392,966.82764Q694.31824,918.06964,672.58215,897.1537Q657.959,885.09674,627.6418,879.7803Q614.4193,868.5796,594.37195,860.43787Q576.69336,853.3519,560.1888,853.09576"/>
</g>
<g style="fill:rgb(15,124,53); fill-opacity:1.0; stroke-linejoin: miter">
<path d="M572.7077,904.4896L572.6383,904.60706Q570.81396,907.16284,570.2615,910.02014Q569.4877,913.09,569.03467,919.20197Q569.0003,919.844,568.99884,920.6448L569.1042,926.4518Q569.11505,927.885,569.0816,928.75494Q569.1276,928.6518,568.26825,942.2256L568.10175,945.4887Q567.9623,948.98956,567.906,952.9571Q567.8059,961.13416,567.888,968.2722L567.9655,974.18195Q568.03656,978.80835,568.09686,978.7418L568.0785,979.4922Q568.1303,980.7594,568.1227,981.3748Q568.1194,983.45996,567.7574,987.3658Q567.7489,988.09625,567.76483,988.5824Q567.9866,991.561,567.9695,992.1014Q567.9684,992.7568,567.9214,994.0878L567.71674,999.29675Q567.67596,999.85333,568.0721,1005.41986Q568.11084,1006.3749,568.0836,1008.1672Q567.66986,1018.568,567.42145,1021.4456Q567.2225,1024.558,566.50854,1027.9534L567.432,1023.80475L570.2414,1012.7107L571.4601,1007.26416L571.77594,1005.4398Q572.11804,1002.0999,572.45294,999.82654L573.75385,993.36945Q574.0861,991.01794,574.2936,988.67175L574.5387,987.12Q575.1935,984.4784,575.46674,982.8641Q575.7518,981.2223,575.89185,979.3705Q575.95856,978.1892,575.93005,977.2621Q575.88324,974.07227,575.7636,968.0639Q575.0404,931.82605,574.9261,930.71027Q574.8014,927.2733,573.18567,919.8198Q572.74005,917.19525,572.4428,913.38403Q572.23,911.32806,572.3034,908.98785Q572.35675,907.4222,572.46985,906.2493L572.55835,905.35913L572.66736,904.90393L572.7077,904.4896"/>
</g>
<g style="fill:rgb(15,124,53); fill-opacity:1.0; stroke-linejoin: miter">
<path d="M630.37225,965.01184L630.37225,965.01184Q630.02747,965.01984,629.6398,965.03326L629.64233,965.03326L629.7112,965.03094Q629.7805,965.0286,629.84973,965.02655Q629.9188,965.0244,629.9857,965.02246Q630.1685,965.01715,630.37854,965.01184L630.37225,965.01184 M628.3592,965.1012L628.3592,965.1012Q628.2385,965.1105,628.0991,965.12537Q627.96387,965.1399,627.7475,965.17114Q627.4533,965.21326,626.6823,965.3395Q626.8533,965.3136,627.4716,965.21643Q627.53296,965.2064,627.75885,965.17316Q627.92975,965.1486,628.06287,965.1326Q628.13,965.1245,628.191,965.11804Q628.22363,965.1141,628.3655,965.1012L628.3592,965.1012 M577.4563,960.1018L574.98334,960.1159Q565.2486,960.2576,556.1621,960.86725Q555.4709,960.89746,552.4585,961.39233L546.67566,962.5717Q543.6455,962.99835,537.4065,963.62726Q537.009,963.65485,535.47565,963.98566Q532.3028,964.8378,532.10126,964.9913Q528.36304,966.6334,528.3032,966.89374Q529.1794,966.5264,531.2403,966.35626Q531.6798,966.2672,534.7997,966.2626Q538.5949,966.4054,545.4038,967.2116Q546.6629,967.2834,548.493,967.2572Q551.45294,967.1791,553.55664,967.0678Q553.9632,967.0624,554.5219,967.07446Q555.809,967.1795,556.493,967.1644Q559.0499,967.1625,563.8747,967.10333Q575.3272,966.96796,593.072,966.69556Q596.3521,966.6402,596.8594,966.6233L598.1149,966.5452L599.484,966.52423Q601.0659,966.52783,605.0653,966.8279Q605.3166,966.8326,606.498,966.77893L609.97754,966.5392Q610.10626,966.52576,611.00397,966.5139Q611.5679,966.5044,612.16223,966.5267Q612.9608,966.56757,615.93695,966.6788Q616.40564,966.6925,617.0221,966.6778Q619.89685,966.58215,621.1618,966.3681L622.87054,966.1054Q625.5309,965.4857,626.58417,965.3554Q623.4902,965.9259,619.2226,965.4034Q617.6076,965.1856,616.67456,964.99866Q613.4229,964.15845,611.0728,963.7236Q610.0836,963.52484,606.60864,963.1432L605.1177,962.89465Q601.4175,961.8622,598.79944,961.5241L585.63477,960.3309Q581.9407,960.0926,577.4563,960.1018"/>
</g>
</g>
</svg>