<?xml version="1.0" encoding="utf-8"?>
<svg xmlns="http://www.w3.org/2000/svg" xmlns:xlink="http://www.w3.org/1999/xlink" version= "1.1" width="1200px" height="1928px" viewBox="0 0 1200 1928">
<g id="layer1">
<g style="fill:rgb(0,0,0); fill-opacity:1.0; stroke-linejoin: miter">
<path d="M747.76324,442.49158L747.1955,441.268Q735.63654,408.05658,714.43225,393.0714Q669.0404,364.9782,619.379,355.1994Q539.236,341.394,455.76074,385.20563Q366.03845,437.30933,332.52594,515.11884Q306.09537,580.02,345.98257,667.4854Q394.18823,768.7718,494.73413,797.5686Q534.29095,810.2206,580.97107,804.6245Q647.26416,791.72314,688.18726,771.7053Q758.2521,723.16943,784.252,687.9782Q813.53296,644.8545,811.81976,601.7196Q810.5111,549.91223,773.0737,491.5457Q739.7444,442.69995,684.3601,409.64868L681.4542,407.7974Q690.5956,414.25247,712.026,435.44794Q722.09985,445.6734,730.8711,456.1258Q752.29346,482.27545,762.7019,502.6786Q792.0783,561.8518,790.2617,605.32086Q789.59485,640.1131,759.88025,677.65533Q739.60077,702.272,669.75354,747.90674Q580.6347,778.5898,550.3076,775.4995Q498.7854,773.34436,450.4965,743.77637Q400.49527,711.5692,376.44873,659.4282Q344.36203,587.87366,354.8629,549.7411Q363.87598,498.27527,416.6903,448.3508Q472.3025,395.89316,532.68854,380.49Q597.0449,361.78732,656.3967,381.78497Q692.89703,393.02234,714.78516,405.2556Q726.8544,412.84818,747.76324,442.49158"/>
</g>
<g style="fill:rgb(0,0,0); fill-opacity:1.0; stroke-linejoin: miter">
<path d="M470.41455,795.45844L463.64694,798.5455Q362.81763,839.8353,290.9501,1006.3287Q240.1795,1130.8083,245.1633,1345.4851L246.00002,1330.0Q253.75462,1268.3855,258.76663,1234.2228Q267.14615,1178.7391,274.09756,1147.4479Q288.27124,1079.1434,316.07443,1009.0399Q382.66864,848.3289,470.41455,795.45844"/>
</g>
<g style="fill:rgb(0,0,0); fill-opacity:1.0; stroke-linejoin: miter">
<path d="M720.52637,767.04047L721.9296,768.1706Q803.61694,847.74524,847.41046,989.5346Q857.1251,1017.7788,870.5475,1119.531Q872.9615,1135.883,882.2621,1230.6201L889.05914,1282.6576Q890.58435,1301.3907,888.22406,1309.1042Q893.382,1291.5581,893.801,1274.0465Q893.9372,1226.3818,891.88745,1149.4661Q884.1554,1027.0508,874.7808,996.25305Q847.73596,913.166,808.168,855.2596Q765.8127,792.2836,720.52637,767.04047"/>
</g>
</g>
</svg>