<?xml version="1.0" encoding="utf-8"?>
<svg xmlns="http://www.w3.org/2000/svg" xmlns:xlink="http://www.w3.org/1999/xlink" version= "1.1" width="1200px" height="1928px" viewBox="0 0 1200 1928">
<g id="layer1">
<g style="fill:rgb(0,0,0); fill-opacity:1.0; stroke-linejoin: miter">
<path d="M747.76324,442.49158L747.1955,441.268Q735.63654,408.05658,714.43225,393.0714Q669.0404,364.9782,619.379,355.1994Q539.236,341.394,455.76074,385.20563Q366.03845,437.30933,332.52594,515.11884Q306.09537,580.02,345.98257,667.4854Q394.18823,768.7718,494.73413,797.5686Q534.29095,810.2206,580.97107,804.6245Q647.26416,791.72314,688.18726,771.7053Q758.2521,723.16943,784.252,687.9782Q813.53296,644.8545,811.81976,601.7196Q810.5111,549.91223,773.0737,491.5457Q739.7444,442.69995,684.3601,409.64868L681.4542,407.7974Q690.5956,414.25247,712.026,435.44794Q722.09985,445.6734,730.8711,456.1258Q752.29346,482.27545,762.7019,502.6786Q792.0783,561.8518,790.2617,605.32086Q789.59485,640.1131,759.88025,677.65533Q739.60077,702.272,669.75354,747.90674Q580.6347,778.5898,550.3076,775.4995Q498.7854,773.34436,450.4965,743.77637Q400.49527,711.5692,376.44873,659.4282Q344.36203,587.87366,354.8629,549.7411Q363.87598,498.27527,416.6903,448.3508Q472.3025,395.89316,532.68854,380.49Q597.0449,361.78732,656.3967,381.78497Q692.89703,393.02234,714.78516,405.2556Q726.8544,412.84818,747.76324,442.49158"/>
</g>
<g style="fill:rgb(0,0,0); fill-opacity:1.0; stroke-linejoin: miter">
<path d="M470.41455,795.45844L463.64694,798.5455Q362.81763,839.8353,290.9501,1006.3287Q240.1795,1130.8083,245.1633,1345.4851L246.00002,1330.0Q253.75462,1268.3855,258.76663,1234.2228Q267.14615,1178.7391,274.09756,1147.4479Q288.27124,1079.1434,316.07443,1009.0399Q382.66864,848.3289,470.41455,795.45844"/>
</g>
<g style="fill:rgb(0,0,0); fill-opacity:1.0; stroke-linejoin: miter">
<path d="M720.52637,767.04047L721.9296,768.1706Q803.61694,847.74524,847.41046,989.5346Q857.1251,1017.7788,870.5475,1119.531Q872.9615,1135.883,882.2621,1230.6201L889.05914,1282.6576Q890.58435,1301.3907,888.22406,1309.1042Q893.382,1291.5581,893.801,1274.0465Q893.9372,1226.3818,891.88745,1149.4661Q884.1554,1027.0508,874.7808,996.25305Q847.73596,913.166,808.168,855.2596Q765.8127,792.2836,720.52637,767.04047"/>
</g>
<g style="fill:rgb(8,108,43); fill-opacity:1.0; stroke-linejoin: miter">
<path d="M575.814,1016.08246L576.92456,1016.08826Q590.2738,1016.3898,606.468,1019.95886Q611.3074,1020.9424,608.86664,1020.66486L616.2585,1022.26874L624.38824,1024.5254Q634.0001,1027.3973,637.7272,1029.3583Q651.61444,1035.9283,665.8228,1058.2076Q660.91895,1043.0516,654.27783,1034.5334Q662.7711,1040.1721,669.5782,1046.8318Q712.82874,1089.1198,708.671,1142.9418Q707.41473,1165.9374,695.77454,1187.9983Q677.2767,1217.5867,654.67505,1236.0227Q637.9761,1249.0088,621.6466,1253.1316Q610.997,1256.4443,563.68195,1258.5986Q540.71094,1256.0089,515.22974,1243.2576Q502.99112,1237.3729,480.57358,1214.5398Q461.9663,1193.7216,452.52243,1171.8943Q440.50696,1146.2703,442.313,1129.4241Q446.60562,1077.5468,479.6124,1050.2545Q522.4245,1015.7863,575.814,1016.08246 M563.8324,1000.5994L561.43945,1000.62103Q497.59238,1003.3067,455.65186,1042.3948Q418.01517,1079.2694,416.37585,1134.9724Q418.61826,1190.8657,465.29675,1241.842Q499.50986,1280.978,561.6582,1287.1688Q605.3438,1284.8589,625.83777,1279.6044Q652.2393,1271.4983,670.27014,1255.1969Q726.0017,1204.8059,727.41223,1143.6959Q727.4011,1085.0546,681.31866,1043.9581Q674.6339,1037.8147,662.0205,1030.6588Q654.6883,1026.4683,642.6457,1023.2491Q635.05756,1017.7828,616.741,1010.7924Q588.94586,1000.3549,563.8324,1000.5994"/>
</g>
<g style="fill:rgb(8,108,43); fill-opacity:1.0; stroke-linejoin: miter">
<path d="M561.9852,901.45483L561.98553,901.55133Q561.85754,905.54004,562.0165,905.8122Q564.36127,920.7452,566.30853,941.22455L568.07526,965.2648Q568.2363,967.48804,568.3119,970.696Q568.3465,979.4933,568.2942,980.22614L567.9758,987.5871Q568.03687,998.7797,567.8499,1008.2198Q567.79974,1012.2226,567.4252,1025.935L567.5091,1032.8052L567.2795,1063.7184Q567.25494,1067.9751,567.40814,1077.4988L567.2096,1079.615L566.73346,1097.4683Q565.29376,1121.8076,565.26105,1124.7675Q564.8047,1135.903,564.4958,1159.6649L565.4617,1199.0958Q566.2227,1250.2965,566.3921,1251.068Q567.06854,1272.1842,567.64514,1280.6698Q567.6963,1283.9902,569.25653,1298.3022Q570.05035,1314.7184,570.4619,1319.4536L570.8372,1323.8171L572.541,1336.9119L575.46533,1370.8445Q575.98566,1376.9166,575.8243,1377.3904Q579.0013,1343.1406,579.49744,1334.7938Q579.6721,1332.7021,579.3695,1323.0786Q580.3572,1308.4028,580.6469,1299.2849Q580.47656,1287.776,581.2564,1264.6189Q581.59393,1254.3438,582.02264,1245.2194Q584.2408,1203.5824,584.4974,1193.2429L585.87,1154.9797Q587.49286,1101.4873,587.36584,1102.1404L586.7962,1079.8124L586.53503,1077.9482L584.0377,1035.6937Q583.0681,1029.7052,582.831,1025.66L581.7244,1004.2557L580.6789,994.48145L579.12384,975.78973L578.3324,968.9348Q578.3963,966.0929,573.66724,945.9724L561.9852,901.45483"/>
</g>
<g style="fill:rgb(8,108,43); fill-opacity:1.0; stroke-linejoin: miter">
<path d="M586.043,1113.268L585.40125,1113.2689Q579.1251,1113.358,574.1466,1113.5748L564.63806,1114.4843L552.8,1115.1179Q541.83276,1116.1194,540.87256,1116.33Q540.04,1116.3278,517.9122,1119.9475Q482.6177,1124.4435,485.21863,1124.2808Q477.67993,1125.3618,441.6397,1132.3969Q398.94745,1140.859,367.85742,1156.5183Q366.2132,1156.27,389.10767,1153.1427Q412.40158,1148.6821,416.95337,1148.0187Q426.17975,1146.5306,436.7581,1145.3384Q468.66995,1141.7173,483.16174,1140.355Q502.44754,1138.8394,520.2348,1137.8755L542.51074,1135.6005Q544.77795,1135.3782,548.8643,1135.2349Q547.8674,1135.1044,566.4739,1135.2362L575.7313,1134.617Q591.04626,1135.0161,606.09546,1134.5067L623.53754,1135.3049L651.464,1137.7665L682.57153,1139.854L686.42487,1140.0405L692.28613,1139.8738Q699.9048,1140.472,706.6305,1140.6943Q707.69385,1140.7942,722.1333,1140.5494L756.64246,1141.1353Q759.6248,1141.2534,772.2743,1141.0842L808.47424,1141.604L816.38586,1141.023Q812.9569,1140.8706,808.74133,1140.3018Q770.5576,1132.8857,769.95465,1133.1505L763.15796,1132.5276Q736.2995,1129.1104,727.1487,1128.1866L708.25665,1126.6537L694.4834,1124.7594Q684.591,1124.0264,684.2201,1124.0988Q674.81116,1122.5966,669.6887,1121.8984L622.7956,1115.4303L615.3698,1114.8733Q607.0512,1113.7855,605.32434,1113.7084Q591.7345,1113.2426,586.043,1113.268"/>
</g>
</g>
</svg>